<svg id="visual" viewBox="0 0 9000 600" width="9000" height="600" xmlns="http://www.w3.org/2000/svg" xmlns:xlink="http://www.w3.org/1999/xlink" version="1.1"><path d="M0 73L68.2 60.8C136.3 48.7 272.7 24.3 409 20.3C545.3 16.3 681.7 32.7 818 40.8C954.3 49 1090.7 49 1227 52C1363.3 55 1499.7 61 1636 61C1772.3 61 1908.7 55 2045.2 57C2181.7 59 2318.3 69 2454.8 79C2591.3 89 2727.7 99 2864 105C3000.3 111 3136.7 113 3273 121C3409.3 129 3545.7 143 3682 133C3818.3 123 3954.7 89 4091 85C4227.3 81 4363.7 107 4500 112C4636.3 117 4772.7 101 4909 104C5045.3 107 5181.7 129 5318 144C5454.3 159 5590.7 167 5727 156C5863.3 145 5999.7 115 6136 109C6272.3 103 6408.7 121 6545.2 135C6681.7 149 6818.3 159 6954.8 137C7091.3 115 7227.7 61 7364 34C7500.3 7 7636.7 7 7773 21C7909.3 35 8045.7 63 8182 88C8318.3 113 8454.7 135 8591 126C8727.3 117 8863.7 77 8931.8 57L9000 37L9000 0L8931.8 0C8863.7 0 8727.3 0 8591 0C8454.7 0 8318.3 0 8182 0C8045.7 0 7909.3 0 7773 0C7636.7 0 7500.3 0 7364 0C7227.7 0 7091.3 0 6954.8 0C6818.3 0 6681.7 0 6545.2 0C6408.7 0 6272.3 0 6136 0C5999.7 0 5863.3 0 5727 0C5590.7 0 5454.3 0 5318 0C5181.7 0 5045.3 0 4909 0C4772.7 0 4636.3 0 4500 0C4363.7 0 4227.3 0 4091 0C3954.7 0 3818.3 0 3682 0C3545.7 0 3409.3 0 3273 0C3136.7 0 3000.3 0 2864 0C2727.7 0 2591.3 0 2454.8 0C2318.3 0 2181.7 0 2045.2 0C1908.7 0 1772.3 0 1636 0C1499.7 0 1363.3 0 1227 0C1090.7 0 954.3 0 818 0C681.7 0 545.3 0 409 0C272.7 0 136.3 0 68.2 0L0 0Z" fill="#6198ff"></path><path d="M0 157L68.2 173C136.3 189 272.7 221 409 233C545.3 245 681.7 237 818 222C954.3 207 1090.7 185 1227 176C1363.3 167 1499.7 171 1636 152C1772.3 133 1908.7 91 2045.2 101C2181.7 111 2318.3 173 2454.8 206C2591.3 239 2727.7 243 2864 228C3000.3 213 3136.7 179 3273 170C3409.3 161 3545.7 177 3682 185C3818.3 193 3954.7 193 4091 201C4227.3 209 4363.7 225 4500 223C4636.3 221 4772.7 201 4909 210C5045.3 219 5181.7 257 5318 273C5454.3 289 5590.7 283 5727 276C5863.3 269 5999.7 261 6136 245C6272.3 229 6408.7 205 6545.2 211C6681.7 217 6818.3 253 6954.8 240C7091.3 227 7227.7 165 7364 138C7500.3 111 7636.7 119 7773 136C7909.3 153 8045.7 179 8182 188C8318.3 197 8454.7 189 8591 187C8727.3 185 8863.7 189 8931.8 191L9000 193L9000 35L8931.8 55C8863.7 75 8727.3 115 8591 124C8454.7 133 8318.3 111 8182 86C8045.7 61 7909.3 33 7773 19C7636.7 5 7500.3 5 7364 32C7227.7 59 7091.3 113 6954.8 135C6818.3 157 6681.7 147 6545.2 133C6408.7 119 6272.3 101 6136 107C5999.7 113 5863.3 143 5727 154C5590.7 165 5454.3 157 5318 142C5181.7 127 5045.3 105 4909 102C4772.7 99 4636.3 115 4500 110C4363.7 105 4227.3 79 4091 83C3954.7 87 3818.3 121 3682 131C3545.7 141 3409.3 127 3273 119C3136.7 111 3000.3 109 2864 103C2727.7 97 2591.3 87 2454.8 77C2318.3 67 2181.7 57 2045.2 55C1908.7 53 1772.3 59 1636 59C1499.7 59 1363.3 53 1227 50C1090.7 47 954.3 47 818 39.2C681.7 31.3 545.3 15.7 409 19.7C272.7 23.7 136.3 47.3 68.2 59.2L0 71Z" fill="#3c80ff"></path><path d="M0 307L68.2 344C136.3 381 272.7 455 409 495C545.3 535 681.7 541 818 521C954.3 501 1090.7 455 1227 397C1363.3 339 1499.7 269 1636 219C1772.3 169 1908.7 139 2045.2 177C2181.7 215 2318.3 321 2454.8 372C2591.3 423 2727.7 419 2864 424C3000.3 429 3136.7 443 3273 430C3409.3 417 3545.7 377 3682 352C3818.3 327 3954.7 317 4091 325C4227.3 333 4363.7 359 4500 351C4636.3 343 4772.7 301 4909 322C5045.3 343 5181.7 427 5318 441C5454.3 455 5590.7 399 5727 363C5863.3 327 5999.7 311 6136 329C6272.3 347 6408.7 399 6545.2 443C6681.7 487 6818.3 523 6954.8 536C7091.3 549 7227.7 539 7364 520C7500.3 501 7636.7 473 7773 458C7909.3 443 8045.7 441 8182 429C8318.3 417 8454.7 395 8591 379C8727.3 363 8863.7 353 8931.8 348L9000 343L9000 191L8931.8 189C8863.7 187 8727.3 183 8591 185C8454.7 187 8318.3 195 8182 186C8045.7 177 7909.3 151 7773 134C7636.7 117 7500.3 109 7364 136C7227.7 163 7091.3 225 6954.8 238C6818.3 251 6681.7 215 6545.2 209C6408.7 203 6272.3 227 6136 243C5999.7 259 5863.3 267 5727 274C5590.7 281 5454.3 287 5318 271C5181.7 255 5045.3 217 4909 208C4772.7 199 4636.3 219 4500 221C4363.7 223 4227.3 207 4091 199C3954.7 191 3818.3 191 3682 183C3545.7 175 3409.3 159 3273 168C3136.7 177 3000.3 211 2864 226C2727.7 241 2591.3 237 2454.8 204C2318.3 171 2181.7 109 2045.2 99C1908.7 89 1772.3 131 1636 150C1499.7 169 1363.3 165 1227 174C1090.7 183 954.3 205 818 220C681.7 235 545.3 243 409 231C272.7 219 136.3 187 68.2 171L0 155Z" fill="#0066ff"></path><path d="M0 343L68.2 384C136.3 425 272.7 507 409 543C545.3 579 681.7 569 818 561C954.3 553 1090.7 547 1227 505C1363.3 463 1499.7 385 1636 336C1772.3 287 1908.7 267 2045.2 287C2181.7 307 2318.3 367 2454.8 410C2591.3 453 2727.7 479 2864 503C3000.3 527 3136.7 549 3273 539C3409.3 529 3545.7 487 3682 463C3818.3 439 3954.7 433 4091 443C4227.3 453 4363.7 479 4500 468C4636.3 457 4772.7 409 4909 422C5045.3 435 5181.7 509 5318 508C5454.3 507 5590.7 431 5727 403C5863.3 375 5999.7 395 6136 434C6272.3 473 6408.7 531 6545.2 556C6681.7 581 6818.3 573 6954.8 573C7091.3 573 7227.7 581 7364 561C7500.3 541 7636.7 493 7773 490C7909.3 487 8045.7 529 8182 533C8318.3 537 8454.7 503 8591 476C8727.3 449 8863.7 429 8931.8 419L9000 409L9000 341L8931.8 346C8863.7 351 8727.3 361 8591 377C8454.7 393 8318.3 415 8182 427C8045.7 439 7909.3 441 7773 456C7636.7 471 7500.3 499 7364 518C7227.7 537 7091.3 547 6954.8 534C6818.3 521 6681.7 485 6545.2 441C6408.7 397 6272.3 345 6136 327C5999.7 309 5863.3 325 5727 361C5590.7 397 5454.3 453 5318 439C5181.7 425 5045.3 341 4909 320C4772.7 299 4636.3 341 4500 349C4363.7 357 4227.3 331 4091 323C3954.7 315 3818.3 325 3682 350C3545.7 375 3409.3 415 3273 428C3136.7 441 3000.3 427 2864 422C2727.7 417 2591.3 421 2454.8 370C2318.3 319 2181.7 213 2045.2 175C1908.7 137 1772.3 167 1636 217C1499.7 267 1363.3 337 1227 395C1090.7 453 954.3 499 818 519C681.7 539 545.3 533 409 493C272.7 453 136.3 379 68.2 342L0 305Z" fill="#0059dd"></path><path d="M0 601L68.2 601C136.3 601 272.7 601 409 601C545.3 601 681.7 601 818 601C954.3 601 1090.7 601 1227 601C1363.3 601 1499.7 601 1636 601C1772.3 601 1908.7 601 2045.2 601C2181.7 601 2318.3 601 2454.8 601C2591.3 601 2727.7 601 2864 601C3000.3 601 3136.7 601 3273 601C3409.3 601 3545.7 601 3682 601C3818.3 601 3954.7 601 4091 601C4227.3 601 4363.7 601 4500 601C4636.3 601 4772.7 601 4909 601C5045.3 601 5181.7 601 5318 601C5454.3 601 5590.7 601 5727 601C5863.3 601 5999.7 601 6136 601C6272.3 601 6408.7 601 6545.2 601C6681.7 601 6818.3 601 6954.8 601C7091.3 601 7227.7 601 7364 601C7500.3 601 7636.7 601 7773 601C7909.3 601 8045.7 601 8182 601C8318.3 601 8454.7 601 8591 601C8727.3 601 8863.7 601 8931.8 601L9000 601L9000 407L8931.8 417C8863.7 427 8727.3 447 8591 474C8454.7 501 8318.3 535 8182 531C8045.7 527 7909.3 485 7773 488C7636.7 491 7500.3 539 7364 559C7227.7 579 7091.3 571 6954.8 571C6818.3 571 6681.7 579 6545.2 554C6408.7 529 6272.3 471 6136 432C5999.7 393 5863.3 373 5727 401C5590.7 429 5454.3 505 5318 506C5181.7 507 5045.3 433 4909 420C4772.7 407 4636.3 455 4500 466C4363.7 477 4227.3 451 4091 441C3954.7 431 3818.3 437 3682 461C3545.7 485 3409.3 527 3273 537C3136.7 547 3000.3 525 2864 501C2727.7 477 2591.3 451 2454.8 408C2318.3 365 2181.7 305 2045.2 285C1908.7 265 1772.3 285 1636 334C1499.7 383 1363.3 461 1227 503C1090.7 545 954.3 551 818 559C681.7 567 545.3 577 409 541C272.7 505 136.3 423 68.2 382L0 341Z" fill="#004cbb"></path></svg>